<?xml version="1.0" encoding="UTF-8"?>
<svg xmlns="http://www.w3.org/2000/svg" onmouseup="{ if(window.parent.document.onmouseup) window.parent.document.onmouseup(arguments[0]);}" xml:space="preserve" style="enable-background:new 0 0 592 76;" viewBox="0 0 592 76" y="0px" x="0px" version="1.1" xmlns:xlink="http://www.w3.org/1999/xlink">
<style type="text/css">
	.st0{fill:none;}
	.st1{fill:#5B8E7D;}
	.st2{fill:#BC4B51;}
	.st3{fill:#FFFFFF;}
	.st4{opacity:0.5;}
	.st5{fill:none;stroke:#FFFFFF;stroke-width:2;stroke-miterlimit:10;}
	.st6{fill:none;stroke:#000000;stroke-width:2;stroke-miterlimit:10;}
	.st7{fill:#90C43D;}
	.st8{fill:#784B26;}
	.st9{fill:none;stroke:#784B26;stroke-width:2;stroke-miterlimit:10;}
	.st10{fill:#F4A259;}
	.st11{fill:#F4E285;}
	.st12{fill:#8CB369;}
	.st13{fill:#666666;}
	.st14{fill:#E6E6E6;}
	.st15{opacity:0.5;fill:url(#);}
	.st16{display:none;fill:#0013FF;stroke:#FFFFFF;stroke-miterlimit:10;}
	.st17{display:none;fill:#FFFFFF;stroke:#FFFFFF;stroke-miterlimit:10;}
	.st18{display:none;}
	.st19{display:inline;fill:#FFFFFF;stroke:#FFFFFF;stroke-miterlimit:10;}
	.st20{fill:#FFFFFF;stroke:#FFFFFF;stroke-miterlimit:10;}
	.st21{stroke:#000000;stroke-miterlimit:10;}
	.st22{display:inline;stroke:#000000;stroke-miterlimit:10;}
	.st23{display:none;stroke:#000000;stroke-miterlimit:10;}
	.st24{fill:#2364AA;}
	.st25{fill:#73BFB8;}
	.st26{fill:#2364AA;stroke:#2364AA;stroke-width:3;stroke-miterlimit:10;}
	.st27{fill:#3DA5D9;stroke:#2364AA;stroke-width:4;stroke-miterlimit:10;}
	.st28{fill:#FEC601;stroke:#2364AA;stroke-width:4;stroke-miterlimit:10;}
	.st29{fill:#3DA5D9;}
	.st30{fill:#FEC601;}
	.st31{fill:#EA731C;}
	.st32{fill:#73BFB8;stroke:#2364AA;stroke-width:4;stroke-miterlimit:10;}
	.st33{fill:#2364AA;stroke:#2364AA;stroke-width:4;stroke-miterlimit:10;}
	.st34{fill:#E6E6E6;stroke:#2364AA;stroke-width:4;stroke-miterlimit:10;}
	.st35{fill:#EF2D56;}
	.st36{fill:#ED7D3A;}
	.st37{fill:#6B1D36;}
	.st38{fill:#2FBF71;}
	.st39{fill:#363537;}
	.st40{fill:#8CD867;}
	.st41{fill:#666666;stroke:#EF2D56;stroke-width:5;stroke-miterlimit:10;}
	.st42{fill:#EF2D56;stroke:#EF2D56;stroke-width:5;stroke-miterlimit:10;}
	.st43{fill:#E8DB7D;}
	.st44{fill:#231123;}
	.st45{fill:#EFC2FF;}
	.st46{fill:#558C8C;stroke:#000000;stroke-miterlimit:10;}
	.st47{fill:#EFC2FF;stroke:#000000;stroke-miterlimit:10;}
	.st48{fill:#E8DB7D;stroke:#000000;stroke-miterlimit:10;}
	.st49{fill:#82324A;stroke:#000000;stroke-miterlimit:10;}
	.st50{fill:#82324A;}
	.st51{fill:none;stroke:#000000;stroke-miterlimit:10;}
	.st52{fill:#558C8C;}
	.st53{fill:url(#SVGID_1_);}
	.st54{fill:url(#SVGID_2_);}
	.st55{fill:#66907B;}
	.st56{fill:url(#SVGID_3_);}
	.st57{fill:url(#SVGID_4_);}
	.st58{fill:#26547C;}
	.st59{fill:#EF476F;}
	.st60{fill:#FFD166;}
	.st61{fill:#06D6A0;}
	.st62{fill:#FFE3E9;}
	.st63{fill:url(#SVGID_5_);}
	.st64{fill:url(#SVGID_6_);}
	.st65{fill:url(#SVGID_7_);}
	.st66{fill:url(#SVGID_8_);}
	.st67{fill:#FCD0A1;}
	.st68{fill:#B1B695;}
	.st69{fill:#53917E;}
	.st70{fill:#63535B;}
	.st71{fill:#6D1A36;}
</style>
<g id="GUIDES">
</g>
<g id="NHO_Assets">
</g>
<g id="NHO_Branding">
</g>
<g id="NHO_Slide_2">
</g>
<g id="NHO_Slide">
</g>
<g id="Progress_Bar">
	<rect x="-25" y="-15.3" class="st16" width="627" height="113.5"/>
	<path class="st17" d="M37.5,33.2c-1.2-7-7-12.2-14-12.2c-7.9,0-14.3,6.2-14.3,14.1s6.4,14.6,14.3,14.6c7,0,12.9-5.5,14-11.5H44v-5   H37.5z M23.4,44.2c-5.1,0-9.3-4.2-9.3-9.3s4.1-9.3,9.3-9.3c5.1,0,9.3,4.2,9.3,9.3S28.5,44.2,23.4,44.2z"/>
	<g class="st18">
		<path class="st19" d="M79.2,34.2C78,27.2,72.1,22,65.1,22C58.1,22,52,26.7,51,33.4v0.7h-7v5h7v-0.8c1,6.7,7.1,12.2,14.1,12.2    c7,0,12.9-5.4,14.1-11.4H86v-5H79.2z M65.2,45.2c-5.1,0-9.3-4.2-9.3-9.3s4.1-9.3,9.3-9.3c5.1,0,9.3,4.2,9.3,9.3    S70.3,45.2,65.2,45.2z"/>
	</g>
	<g class="st18">
		<path class="st19" d="M121.2,34.2c-1.2-7-7.1-12.2-14.1-12.2C100.1,22,94,26.7,93,33.4v0.7h-7v5h7v-0.8c1,6.7,7.1,12.2,14.1,12.2    c7,0,12.9-5.4,14.1-11.4h6.8v-5H121.2z M107.2,45.2c-5.1,0-9.3-4.2-9.3-9.3s4.1-9.3,9.3-9.3c5.1,0,9.3,4.2,9.3,9.3    S112.3,45.2,107.2,45.2z"/>
	</g>
	<g>
		<path class="st20" d="M163.2,34.2c-1.2-7-7.1-12.2-14.1-12.2c-7.1,0-13.1,4.7-14.1,11.4v0.7h-7v5h7v-0.8c1,6.7,7.1,12.2,14.1,12.2    c7,0,12.9-5.4,14.1-11.4h6.8v-5H163.2z M149.2,45.2c-5.1,0-9.3-4.2-9.3-9.3s4.1-9.3,9.3-9.3c5.1,0,9.3,4.2,9.3,9.3    S154.3,45.2,149.2,45.2z"/>
	</g>
	<g>
		<path class="st20" d="M205.2,34.2c-1.2-7-7.1-12.2-14.1-12.2c-7.1,0-13.1,4.7-14.1,11.4v0.7h-7v5h7v-0.8c1,6.7,7.1,12.2,14.1,12.2    c7,0,12.9-5.4,14.1-11.4h6.8v-5H205.2z M191.2,45.2c-5.1,0-9.3-4.2-9.3-9.3s4.1-9.3,9.3-9.3c5.1,0,9.3,4.2,9.3,9.3    S196.3,45.2,191.2,45.2z"/>
	</g>
	<g>
		<path class="st20" d="M247.2,34.2c-1.2-7-7.1-12.2-14.1-12.2c-7.1,0-13.1,4.7-14.1,11.4v0.7h-7v5h7v-0.8c1,6.7,7.1,12.2,14.1,12.2    c7,0,12.9-5.4,14.1-11.4h6.8v-5H247.2z M233.2,45.2c-5.1,0-9.3-4.2-9.3-9.3s4.1-9.3,9.3-9.3c5.1,0,9.3,4.2,9.3,9.3    S238.3,45.2,233.2,45.2z"/>
	</g>
	<g>
		<path class="st20" d="M289.2,34.2c-1.2-7-7.1-12.2-14.1-12.2c-7.1,0-13.1,4.7-14.1,11.4v0.7h-7v5h7v-0.8c1,6.7,7.1,12.2,14.1,12.2    c7,0,12.9-5.4,14.1-11.4h6.8v-5H289.2z M275.2,45.2c-5.1,0-9.3-4.2-9.3-9.3s4.1-9.3,9.3-9.3c5.1,0,9.3,4.2,9.3,9.3    S280.3,45.2,275.2,45.2z"/>
	</g>
	<g>
		<path class="st20" d="M331.2,34.2c-1.2-7-7.1-12.2-14.1-12.2c-7.1,0-13.1,4.7-14.1,11.4v0.7h-7v5h7v-0.8c1,6.7,7.1,12.2,14.1,12.2    c7,0,12.9-5.4,14.1-11.4h6.8v-5H331.2z M317.2,45.2c-5.1,0-9.3-4.2-9.3-9.3s4.1-9.3,9.3-9.3c5.1,0,9.3,4.2,9.3,9.3    S322.3,45.2,317.2,45.2z"/>
	</g>
	<g>
		<path class="st20" d="M373.2,34.2c-1.2-7-7.1-12.2-14.1-12.2c-7.1,0-13.1,4.7-14.1,11.4v0.7h-7v5h7v-0.8c1,6.7,7.1,12.2,14.1,12.2    c7,0,12.9-5.4,14.1-11.4h6.8v-5H373.2z M359.2,45.2c-5.1,0-9.3-4.2-9.3-9.3s4.1-9.3,9.3-9.3c5.1,0,9.3,4.2,9.3,9.3    S364.3,45.2,359.2,45.2z"/>
	</g>
	<g class="st18">
		<path class="st19" d="M415.2,34.2c-1.2-7-7.1-12.2-14.1-12.2c-7.1,0-13.1,4.7-14.1,11.4v0.7h-7v5h7v-0.8c1,6.7,7.1,12.2,14.1,12.2    c7,0,12.9-5.4,14.1-11.4h6.8v-5H415.2z M401.2,45.2c-5.1,0-9.3-4.2-9.3-9.3s4.1-9.3,9.3-9.3c5.1,0,9.3,4.2,9.3,9.3    S406.3,45.2,401.2,45.2z"/>
	</g>
	<g class="st18">
		<path class="st19" d="M457.2,34.2c-1.2-7-7.1-12.2-14.1-12.2c-7.1,0-13.1,4.7-14.1,11.4v0.7h-7v5h7v-0.8c1,6.7,7.1,12.2,14.1,12.2    c7,0,12.9-5.4,14.1-11.4h6.8v-5H457.2z M443.2,45.2c-5.1,0-9.3-4.2-9.3-9.3s4.1-9.3,9.3-9.3c5.1,0,9.3,4.2,9.3,9.3    S448.3,45.2,443.2,45.2z"/>
	</g>
	<g class="st18">
		<path class="st19" d="M499.2,34.2c-1.2-7-7.1-12.2-14.1-12.2c-7.1,0-13.1,4.7-14.1,11.4v0.7h-7v5h7v-0.8c1,6.7,7.1,12.2,14.1,12.2    c7,0,12.9-5.4,14.1-11.4h6.8v-5H499.2z M485.2,45.2c-5.1,0-9.3-4.2-9.3-9.3s4.1-9.3,9.3-9.3c5.1,0,9.3,4.2,9.3,9.3    S490.3,45.2,485.2,45.2z"/>
	</g>
	<g class="st18">
		<path class="st19" d="M541.2,34.2c-1.2-7-7.1-12.2-14.1-12.2c-7.1,0-13.1,4.7-14.1,11.4v0.7h-7v5h7v-0.8c1,6.7,7.1,12.2,14.1,12.2    c7,0,12.9-5.4,14.1-11.4h6.8v-5H541.2z M527.2,45.2c-5.1,0-9.3-4.2-9.3-9.3s4.1-9.3,9.3-9.3c5.1,0,9.3,4.2,9.3,9.3    S532.3,45.2,527.2,45.2z"/>
	</g>
	<path class="st20" d="M386.5,39.2c1.2,7,7,11.3,14,11.3c7.9,0,14.3-6.6,14.3-14.5s-6.4-13.9-14.3-13.9c-7,0-12.9,5.1-14,12.1H380v5   H386.5z M400.6,26.5c5.1,0,9.3,4.2,9.3,9.3s-4.1,9.3-9.3,9.3c-5.1,0-9.3-4.2-9.3-9.3S395.5,26.5,400.6,26.5z"/>
	<path class="st21" d="M37.5,34.2c-1.2-7-7-12.7-14-12.7c-7.9,0-14.3,5.9-14.3,13.8s6.4,14.9,14.3,14.9c7,0,12.9-5.1,14-11.1H43v-5   H37.5z M23.4,44.2c-5.1,0-9.3-4.2-9.3-9.3s4.1-9.3,9.3-9.3c5.1,0,9.3,4.2,9.3,9.3S28.5,44.2,23.4,44.2z"/>
	<g>
		<path class="st21" d="M79.2,34.2c-1.2-7-7.6-12.7-14.6-12.7c-7.1,0-13.6,4.2-14.6,10.9v1.7h-7v5h7v-1.8C51,44,57.6,50,64.6,50    c7,0,13.4-4.9,14.6-10.9H85v-5H79.2z M65.2,44.2c-5.1,0-9.3-4.2-9.3-9.3s4.1-9.3,9.3-9.3c5.1,0,9.3,4.2,9.3,9.3    S70.3,44.2,65.2,44.2z"/>
	</g>
	<g>
		<path class="st21" d="M121.2,34.2c-1.2-7-7.6-12.7-14.6-12.7c-7.1,0-13.6,4.2-14.6,10.9v1.7h-7v5h7v-1.8C93,44,99.6,50,106.6,50    c7,0,13.4-4.9,14.6-10.9h5.8v-5H121.2z M107.2,44.2c-5.1,0-9.3-4.2-9.3-9.3s4.1-9.3,9.3-9.3c5.1,0,9.3,4.2,9.3,9.3    S112.3,44.2,107.2,44.2z"/>
	</g>
	<g class="st18">
		<path class="st22" d="M163.2,34.2c-1.2-7-7.6-12.7-14.6-12.7c-7.1,0-13.6,4.2-14.6,10.9v1.7h-7v5h7v-1.8c1,6.7,7.6,12.7,14.6,12.7    c7,0,13.4-4.9,14.6-10.9h5.8v-5H163.2z M149.2,44.2c-5.1,0-9.3-4.2-9.3-9.3s4.1-9.3,9.3-9.3c5.1,0,9.3,4.2,9.3,9.3    S154.3,44.2,149.2,44.2z"/>
	</g>
	<g class="st18">
		<path class="st22" d="M205.2,34.2c-1.2-7-7.6-12.7-14.6-12.7c-7.1,0-13.6,4.2-14.6,10.9v1.7h-7v5h7v-1.8c1,6.7,7.6,12.7,14.6,12.7    c7,0,13.4-4.9,14.6-10.9h5.8v-5H205.2z M191.2,44.2c-5.1,0-9.3-4.2-9.3-9.3s4.1-9.3,9.3-9.3c5.1,0,9.3,4.2,9.3,9.3    S196.3,44.2,191.2,44.2z"/>
	</g>
	<g class="st18">
		<path class="st22" d="M247.2,34.2c-1.2-7-7.6-12.7-14.6-12.7c-7.1,0-13.6,4.2-14.6,10.9v1.7h-7v5h7v-1.8c1,6.7,7.6,12.7,14.6,12.7    c7,0,13.4-4.9,14.6-10.9h5.8v-5H247.2z M233.2,44.2c-5.1,0-9.3-4.2-9.3-9.3s4.1-9.3,9.3-9.3c5.1,0,9.3,4.2,9.3,9.3    S238.3,44.2,233.2,44.2z"/>
	</g>
	<g class="st18">
		<path class="st22" d="M289.2,34.2c-1.2-7-7.6-12.7-14.6-12.7c-7.1,0-13.6,4.2-14.6,10.9v1.7h-7v5h7v-1.8c1,6.7,7.6,12.7,14.6,12.7    c7,0,13.4-4.9,14.6-10.9h5.8v-5H289.2z M275.2,44.2c-5.1,0-9.3-4.2-9.3-9.3s4.1-9.3,9.3-9.3c5.1,0,9.3,4.2,9.3,9.3    S280.3,44.2,275.2,44.2z"/>
	</g>
	<g class="st18">
		<path class="st22" d="M331.2,34.2c-1.2-7-7.6-12.7-14.6-12.7c-7.1,0-13.6,4.2-14.6,10.9v1.7h-7v5h7v-1.8c1,6.7,7.6,12.7,14.6,12.7    c7,0,13.4-4.9,14.6-10.9h5.8v-5H331.2z M317.2,44.2c-5.1,0-9.3-4.2-9.3-9.3s4.1-9.3,9.3-9.3c5.1,0,9.3,4.2,9.3,9.3    S322.3,44.2,317.2,44.2z"/>
	</g>
	<g class="st18">
		<path class="st22" d="M373.2,34.2c-1.2-7-7.6-12.7-14.6-12.7c-7.1,0-13.6,4.2-14.6,10.9v1.7h-7v5h7v-1.8c1,6.7,7.6,12.7,14.6,12.7    c7,0,13.4-4.9,14.6-10.9h5.8v-5H373.2z M359.2,44.2c-5.1,0-9.3-4.2-9.3-9.3s4.1-9.3,9.3-9.3c5.1,0,9.3,4.2,9.3,9.3    S364.3,44.2,359.2,44.2z"/>
	</g>
	<g class="st18">
		<path class="st22" d="M415.2,34.2c-1.2-7-7.6-12.7-14.6-12.7c-7.1,0-13.6,4.2-14.6,10.9v1.7h-7v5h7v-1.8c1,6.7,7.6,12.7,14.6,12.7    c7,0,13.4-4.9,14.6-10.9h5.8v-5H415.2z M401.2,44.2c-5.1,0-9.3-4.2-9.3-9.3s4.1-9.3,9.3-9.3c5.1,0,9.3,4.2,9.3,9.3    S406.3,44.2,401.2,44.2z"/>
	</g>
	<g class="st18">
		<path class="st22" d="M457.2,34.2c-1.2-7-7.6-12.7-14.6-12.7c-7.1,0-13.6,4.2-14.6,10.9v1.7h-7v5h7v-1.8c1,6.7,7.6,12.7,14.6,12.7    c7,0,13.4-4.9,14.6-10.9h5.8v-5H457.2z M443.2,44.2c-5.1,0-9.3-4.2-9.3-9.3s4.1-9.3,9.3-9.3c5.1,0,9.3,4.2,9.3,9.3    S448.3,44.2,443.2,44.2z"/>
	</g>
	<g class="st18">
		<path class="st22" d="M499.2,34.2c-1.2-7-7.6-12.7-14.6-12.7c-7.1,0-13.6,4.2-14.6,10.9v1.7h-7v5h7v-1.8c1,6.7,7.6,12.7,14.6,12.7    c7,0,13.4-4.9,14.6-10.9h5.8v-5H499.2z M485.2,44.2c-5.1,0-9.3-4.2-9.3-9.3s4.1-9.3,9.3-9.3c5.1,0,9.3,4.2,9.3,9.3    S490.3,44.2,485.2,44.2z"/>
	</g>
	<g class="st18">
		<path class="st22" d="M541.2,34.2c-1.2-7-7.6-12.7-14.6-12.7c-7.1,0-13.6,4.2-14.6,10.9v1.7h-7v5h7v-1.8c1,6.7,7.6,12.7,14.6,12.7    c7,0,13.4-4.9,14.6-10.9h5.8v-5H541.2z M527.2,44.2c-5.1,0-9.3-4.2-9.3-9.3s4.1-9.3,9.3-9.3c5.1,0,9.3,4.2,9.3,9.3    S532.3,44.2,527.2,44.2z"/>
	</g>
	<path class="st23" d="M387.5,39.2c1.2,7,7,10.8,14,10.8c7.9,0,14.3-6.9,14.3-14.8s-6.4-13.5-14.3-13.5c-7,0-12.9,5.5-14,12.5H380v5   H387.5z M401.6,25.5c5.1,0,9.3,4.2,9.3,9.3s-4.1,9.3-9.3,9.3c-5.1,0-9.3-4.2-9.3-9.3S396.5,25.5,401.6,25.5z"/>
</g>
<g id="NHO_Title">
</g>
<g id="OPTION_1_Assets">
</g>
<g id="OPTION_1_Slide_2">
</g>
<g id="OPTION_1_Slide">
</g>
<g id="OPTION_1_Title">
</g>
<g id="OPTION_1_Branding">
</g>
<g id="OPTION_2_Assets">
</g>
<g id="OPTION_2_Slide_2">
</g>
<g id="OPTION_2_Slide">
</g>
<g id="OPTION_2_Title">
</g>
<g id="OPTION_2_Branding">
</g>
<g id="OPTION_3_Assets">
</g>
<g id="OPTION_3_Slide_2">
</g>
<g id="OPTION_3_Slide">
</g>
<g id="OPTION_3_Title">
</g>
<g id="OPTION_3_Branding">
</g>
<g id="OPTION_4_Assets">
</g>
<g id="OPTION_3_Slide_2_1_">
</g>
<g id="OPTION_4_Slide">
</g>
<g id="OPTION_4_Title">
</g>
<g id="OPTION_4_Branding">
</g>
<g id="OPTION_5_Assets">
</g>
<g id="OPTION_5_Slide_2">
</g>
<g id="OPTION_5_Slide">
</g>
<g id="OPTION_5_Title">
</g>
<g id="OPTION_5_Branding">
</g>
</svg>